<?xml version="1.0" encoding="UTF-8"?>
<svg width="1085px" height="478px" viewBox="0 0 1085 478" version="1.1" xmlns="http://www.w3.org/2000/svg" xmlns:xlink="http://www.w3.org/1999/xlink">
    <!-- Generator: Sketch 46.2 (44496) - http://www.bohemiancoding.com/sketch -->
    <title>Hero</title>
    <desc>Created with Sketch.</desc>
    <defs></defs>
    <g id="Page-1" stroke="none" stroke-width="1" fill="none" fill-rule="evenodd">
        <g id="Hero">
            <path d="M27.6074172,223.918666 C11.8060073,244.056921 -4.16610718,265.344976 -9.72523859,290.62496 C-11.2323809,297.470181 -11.8747694,304.936071 -8.95032936,311.265555 C-5.95401369,317.742393 0.247506236,321.924095 6.44228782,325.174793 C37.0500792,341.242977 72.7902404,342.013232 107.124334,341.999836 C136.148616,341.984208 165.161666,341.660478 194.176963,341.334515 C217.635374,341.071065 242.295457,340.486118 262.598078,328.298232 C296.844574,307.742477 307.246327,261.638823 307.942622,220.701457 C308.57378,183.615365 303.993954,146.4422 294.398556,110.715776 C291.878417,101.352157 288.922531,91.9505835 285.158044,83 C237.679693,89.2312494 189.866671,92.6382313 142.019957,93.1963869 C111.901818,125.576111 62.2043065,179.824372 27.6074172,223.918666" id="Shape-1" fill="#1DBBEE" transform="translate(148.500000, 212.500000) rotate(-270.000000) translate(-148.500000, -212.500000) "></path>
            <path d="M293.700273,249.259634 C280.169486,254.286055 265.745622,267.047332 250.424193,283.74672 C246.335786,288.200937 237.965996,297.145275 227,309 C274.802049,308.439015 322.568196,305.014766 370,298.751934 C364.755979,286.226271 357.943463,274.58472 348.480888,265.205058 C332.21926,249.089094 309.524338,243.373784 293.700273,249.259634" id="Fill-1" fill="#F6B3A2" transform="translate(298.500000, 278.000000) rotate(-270.000000) translate(-298.500000, -278.000000) "></path>
            <path d="M263.05879,151.887367 C233.233822,173.417668 203.372967,196.706094 181.849285,216.088074 C163.533072,232.574979 144.855739,251.665433 140.641171,276.472036 C139.248277,284.663911 139.842668,293.943401 145.263962,300.058715 C150.582079,306.061904 159.038131,307.476925 166.828017,308.468113 C221.467124,315.415397 276.545857,318.561633 331.588701,317.918034 C342.550167,306.070874 350.914257,297.134487 355.003218,292.68087 C370.318318,275.99214 384.736224,263.239007 398.261421,258.215794 C414.078949,252.3337 436.762254,258.045363 453.017164,274.151042 C462.478073,283.524718 469.285532,295.158839 474.52963,307.676508 C497.410317,304.651368 520.221471,300.978143 542.913748,296.625438 C548.610929,295.531095 554.465119,294.33584 559.330153,291.059538 C571.745073,282.699475 573.236658,263.905032 568.544334,249.319772 C562.145098,229.365953 547.471493,213.697563 533.239755,198.77817 C514.876439,179.515042 496.515366,160.258642 478.154293,141 C411.645311,174.065752 332.409634,177.380176 263.05879,151.887367" id="Shape-2" fill="#E8493A" transform="translate(355.500000, 229.500000) rotate(-270.000000) translate(-355.500000, -229.500000) "></path>
            <path d="M509.354585,208.167283 C494.39395,200.656716 484.170587,198.03899 458.500083,205.265168 C442.990167,209.634016 397.541044,238.352867 352,271.185288 C421.321571,296.641498 500.521241,293.331832 567,260.313551 C560.679899,253.689741 554.357557,247.063692 548.030731,240.433164 C536.329913,228.177549 524.317462,215.68009 509.354585,208.167283" id="Fill-2" fill="#157F63" transform="translate(459.500000, 244.500000) rotate(-270.000000) translate(-459.500000, -244.500000) "></path>
            <path d="M404.403908,144.746563 C390.268061,163.204037 377.26757,182.502413 366.252829,203.136866 C354.654704,224.862037 345.526986,252.335235 357.941849,273.545159 C363.49073,283.018137 372.569084,289.618217 381.703533,295.393009 C397.578313,305.414692 414.458309,313.605127 431.955345,320 C477.533353,287.296256 523.019365,258.689959 538.54187,254.338233 C564.23321,247.140376 574.46487,249.745612 589.437648,257.228975 C604.41267,264.712337 616.434871,277.158586 628.145186,289.3684 C634.477147,295.970711 640.804621,302.570791 647.129852,309.170872 C648.803715,308.336661 650.488798,307.524755 652.146955,306.657086 C663.655329,300.654783 675.033564,293.570682 682.976563,283.073899 C698.77281,262.180708 697.641943,232.706743 692.851461,206.661072 C688.45813,182.783458 681.580929,159.403247 672.46443,137 C667.388988,138.251316 662.302327,139.371033 657.262785,140.401528 C574.103621,157.342255 488.032023,158.756399 404.403908,144.746563" id="Shape-3" fill="#94CDB8" transform="translate(524.000000, 228.500000) rotate(-270.000000) translate(-524.000000, -228.500000) "></path>
            <path d="M727.522019,186.900426 C716.67119,180.448793 698.042849,168.462081 676.982773,173.002367 C655.924942,177.544888 621.378163,205.04145 601.430763,226.618427 C578.506508,251.418984 555.541873,276.541452 535,303.443373 C618.609934,317.486739 704.662819,316.067201 787.803904,299.088633 C792.84235,298.058071 797.927905,296.935853 803,295.679506 C790.910871,265.900506 774.873538,237.840601 755.359095,212.648832 C747.503068,202.515343 740.010455,194.322262 727.522019,186.900426" id="Fill-3" fill="#FBCD8A" transform="translate(669.000000, 242.500000) rotate(-270.000000) translate(-669.000000, -242.500000) "></path>
            <path d="M622.531978,163.087736 C610.497115,160.603661 597.774354,156.527805 585.35857,153.265775 C557.24436,178.162576 530.685203,204.960546 505.945505,233.480331 C490.177617,251.649055 474.190138,276.507743 484.0179,298.727661 C491.676653,316.051172 511.551766,322.824088 529.403516,327.063607 C544.024161,330.531896 558.747877,333.504715 573.543297,336 C594.061494,309.020432 616.999661,283.825452 639.899735,258.953312 C659.821903,237.311815 694.328864,209.738132 715.364665,205.180257 C736.400467,200.629108 755.01406,212.634725 765.84342,219.120672 C778.346591,226.608769 785.80368,234.780659 793.650652,244.943397 C813.140363,270.205635 829.161452,298.348773 841.236648,328.213724 C870.36366,320.994661 899.132158,309.370175 917.52616,285.345491 C923.892023,277.027874 928.917939,266.266537 926.285103,255.989461 C924.510459,249.070818 919.56969,243.591504 914.78577,238.439514 C884.238147,205.547936 852.953329,173.398442 820.980614,142 C800.917281,159.271946 772.782904,171.847016 750.440767,176.225535 C707.963595,184.543152 664.915041,171.824597 622.531978,163.087736" id="Shape-4" fill="#F5A022" transform="translate(704.000000, 239.000000) rotate(-270.000000) translate(-704.000000, -239.000000) "></path>
            <path d="M935,255.31069 C927.926015,248.417033 920.827342,241.552331 913.686028,234.736631 C886.727681,209.001796 837.786565,174.148177 805.679828,188.245094 C780.220663,199.426405 728.853475,240.27383 699,266.500911 C711.437826,269.743937 724.17863,273.791037 736.234927,276.261171 C778.683328,284.941165 821.802769,297.576938 864.347674,289.311232 C886.725436,284.963439 914.902431,272.470217 935,255.31069" id="Fill-4" fill="#C4958C" transform="translate(817.000000, 238.500000) rotate(-270.000000) translate(-817.000000, -238.500000) "></path>
            <path d="M1059.09863,185.564875 C1046.33083,169.330611 1034.7584,155.546718 1023.44837,143.393419 C1007.9153,126.699992 992.877864,113.102004 975.940849,100.63289 C963.029516,91.1181063 949.440881,81.5361281 933.82707,78.8147388 C899.791565,72.8747187 869.454304,100.476102 846.273559,127.091961 C843.050772,130.794395 839.895266,134.559543 836.726304,138.309013 C830.092341,146.155126 823.530145,154.061713 817.10924,162.093732 C809.064607,172.150553 801.172478,182.341764 793.477709,192.692003 C768.706877,225.995984 744.786035,269.616608 761.651283,307.845968 C773.959325,335.765406 802.040411,348.151648 831.929128,356 C861.761778,329.626042 913.090889,288.549862 938.532295,277.305932 C970.616634,263.13007 1019.52361,298.181116 1046.46539,324.057833 C1053.59948,330.913942 1060.6932,337.817088 1067.76225,344.747111 C1085.84978,329.204954 1097.73844,308.883008 1099.63578,288.113096 C1101.57797,266.819064 1096.8122,233.506123 1059.09863,185.564875" id="Shape-5" fill="#F8D7CA" transform="translate(928.000000, 217.000000) rotate(-270.000000) translate(-928.000000, -217.000000) "></path>
        </g>
    </g>
</svg>