<svg xmlns="http://www.w3.org/2000/svg" xmlns:xlink="http://www.w3.org/1999/xlink" width="410" height="512" viewBox="0 0 410 512">
  <defs>
    <path id="mask-a" d="M0,0 L35,0 L35,512 L0,512 L0,0 Z M75,0 L110,0 L110,512 L75,512 L75,0 Z M150,0 L185,0 L185,512 L150,512 L150,0 Z M225,0 L260,0 L260,512 L225,512 L225,0 Z M300,0 L335,0 L335,512 L300,512 L300,0 Z M375,0 L410,0 L410,512 L375,512 L375,0 Z"/>
  </defs>
  <g fill="none" fill-rule="evenodd">
    <use fill="#000" xlink:href="#mask-a"/>
  </g>
</svg>
