<svg xmlns="http://www.w3.org/2000/svg" xmlns:xlink="http://www.w3.org/1999/xlink" width="200" height="200" viewBox="0 0 200 200">
  <defs>
    <polygon id="mask-a" points="200 200 0 200 0 0 200 0"/>
  </defs>
  <g fill="none" fill-rule="evenodd">
    <mask id="mask-b" fill="#fff">
      <use xlink:href="#mask-a"/>
    </mask>
    <path fill="#1DBBEE" d="M24.2052772,108.817503 C14.2984372,124.368279 4.2845723,140.806931 0.799223457,160.328155 C-0.14569334,165.614039 -0.548444762,171.379205 1.28505996,176.266838 C3.16362778,181.268257 7.05172805,184.497371 10.9356036,187.007562 C30.1254415,199.415427 52.5330661,200.010218 74.0591438,199.999874 C92.2561853,199.987805 110.446186,199.737821 128.637594,199.486112 C143.345062,199.282676 158.805929,198.830979 171.534845,189.419484 C193.006003,173.546314 199.527477,137.945037 199.964026,106.333171 C200.359737,77.6952624 197.488372,48.9901162 191.472449,21.4021432 C189.892424,14.1715497 188.039204,6.91164752 185.679025,0 C155.912033,4.81177556 125.935217,7.44264962 95.937277,7.87365782 C77.0544315,32.8773056 45.8961169,74.7678547 24.2052772,108.817503" mask="url(#mask-b)"/>
  </g>
</svg>
